<svg id="_-e-reason_icon_6" data-name="-e-reason_icon_6" xmlns="http://www.w3.org/2000/svg" width="30" height="30" viewBox="0 0 30 30">
  <defs>
    <style>
      .cls-1 {
        fill: #abacaf;
        fill-rule: evenodd;
      }
    </style>
  </defs>
  <path class="cls-1" d="M2571.67,7643.06a11.893,11.893,0,0,0-2.07-.68v-4.78a0.6,0.6,0,0,0-.6-0.6h-1.2c-7.44,0-10.24,4.82-11.07,6.81a11.861,11.861,0,0,0-6.93-2.01c-4.9,0-7.37,1.21-7.47,1.26a0.616,0.616,0,0,0-.33.54v21.6a0.609,0.609,0,0,0,.28.51,0.618,0.618,0,0,0,.59.03,17.087,17.087,0,0,1,6.93-1.14,10.018,10.018,0,0,1,6.77,2.22,0.6,0.6,0,0,0,.43.18,0.479,0.479,0,0,0,.23-0.05,0.641,0.641,0,0,0,.19-0.13h0.01a9.928,9.928,0,0,1,6.77-2.22,17.087,17.087,0,0,1,6.93,1.14,0.618,0.618,0,0,0,.59-0.03,0.609,0.609,0,0,0,.28-0.51v-21.6A0.6,0.6,0,0,0,2571.67,7643.06Zm-3.87-4.86h0.6v20.4h-0.6c-5.79,0-8.77,2.92-10.2,5.15v-18.87C2557.81,7644.15,2559.78,7638.2,2567.8,7638.2Zm-24.6,26.12V7644a18.659,18.659,0,0,1,6.6-1,10.422,10.422,0,0,1,6.6,2.07v20.12a12.062,12.062,0,0,0-6.6-1.79A21.124,21.124,0,0,0,2543.2,7664.32Zm27.6,0a21.124,21.124,0,0,0-6.6-.92,12.4,12.4,0,0,0-5.84,1.35c1.15-2,3.8-4.95,9.44-4.95h1.2a0.6,0.6,0,0,0,.6-0.6v-15.58a10.382,10.382,0,0,1,1.2.38v20.32Zm-20.4-6.66a3.166,3.166,0,0,1-.8.34,0.242,0.242,0,0,0-.09,0,0.491,0.491,0,0,1,.01-0.24c0.16-.77.6-2.83,0.92-4.35l0.24-1.13a1.238,1.238,0,0,0-.25-1.01,1.277,1.277,0,0,0-1-.47h-0.52a0.6,0.6,0,1,0,0,1.2h0.52a0.065,0.065,0,0,1,.07.03l-0.24,1.13c-0.32,1.52-.76,3.58-0.92,4.35a1.462,1.462,0,0,0,.23,1.25,1.28,1.28,0,0,0,1.03.44,3.426,3.426,0,0,0,1.4-.51,0.592,0.592,0,0,0,.22-0.82A0.6,0.6,0,0,0,2550.4,7657.66Zm0-10.46a1.2,1.2,0,1,0,1.2,1.2A1.2,1.2,0,0,0,2550.4,7647.2Z" transform="translate(-2542 -7637)"/>
</svg>
