<svg id="_-e-reason_icon_4" data-name="-e-reason_icon_4" xmlns="http://www.w3.org/2000/svg" width="30" height="25" viewBox="0 0 30 25">
  <defs>
    <style>
      .cls-1 {
        fill: #abacaf;
        fill-rule: evenodd;
      }
    </style>
  </defs>
  <path class="cls-1" d="M2542,7448v25h30v-25h-30Zm28.8,1.19v1.19h-27.6v-1.19h27.6Zm-27.6,22.62v-20.24h27.6v20.24h-27.6Zm22.8-10.71v-2.39a0.6,0.6,0,0,0-.6-0.59h-16.8a0.6,0.6,0,0,0-.6.59v2.39a0.6,0.6,0,0,0,.6.59h16.8A0.6,0.6,0,0,0,2566,7461.1Zm-1.2-.6h-15.6v-1.19h15.6v1.19Zm1.53,4.33-3.01-1.86a0.605,0.605,0,0,0-.61-0.01,0.586,0.586,0,0,0-.31.52v3.57a0.6,0.6,0,0,0,1.2,0v-1.32l1.6,2.8a0.58,0.58,0,0,0,.52.3,0.6,0.6,0,0,0,.3-0.07,0.6,0.6,0,0,0,.22-0.82l-1.55-2.72,1.01,0.62a0.6,0.6,0,0,0,.82-0.19A0.588,0.588,0,0,0,2566.33,7464.83Zm-3.93-9.09h-10.8v1.19h10.8v-1.19Z" transform="translate(-2542 -7448)"/>
</svg>
