<svg id="_-e-sns_icon_3" data-name="-e-sns_icon_3" xmlns="http://www.w3.org/2000/svg" width="17" height="17" viewBox="0 0 17 17">
  <defs>
    <style>
      .cls-1 {
        fill: #1a1a1a;
        fill-rule: evenodd;
      }
    </style>
  </defs>
  <path class="cls-1" d="M2573.98,8091.97a3.033,3.033,0,0,0-2.88-2.96c-3.37-.01-6.74,0-10.1-0.01a9.082,9.082,0,0,0-1.65.08,3.08,3.08,0,0,0-2.3,2.45,8.025,8.025,0,0,0-.04,1.2c-0.02,3.43-.01,6.86-0.01,10.29a3.073,3.073,0,0,0,2.89,2.97c3.71,0.01,7.42,0,11.12,0a3.07,3.07,0,0,0,2.99-2.98C2574,8099.33,2574,8095.65,2573.98,8091.97Zm-1.15,1.87c-0.01,1.22,0,2.44-.01,3.65a2.9,2.9,0,0,1-2.66,2.74c-1.16.02-2.33,0-3.5,0.01-0.28.58-.57,1.15-0.85,1.73a0.527,0.527,0,0,1-.32.36,0.554,0.554,0,0,1-.31-0.37c-0.28-.57-0.57-1.14-0.84-1.71-1.17-.02-2.34.01-3.51-0.02a2.912,2.912,0,0,1-2.66-2.74c0-1.53-.01-3.05,0-4.58a2.9,2.9,0,0,1,2.82-2.7q4.515-.015,9.01,0a2.909,2.909,0,0,1,2.7,2.02A5.116,5.116,0,0,1,2572.83,8093.84Zm-8.98-.47a1.359,1.359,0,0,0-.76-0.23V8094a0.6,0.6,0,0,1,.41.6c0.03,0.8,0,1.59.01,2.39h0.87c0.01-.8,0-1.59,0-2.39A1.485,1.485,0,0,0,2563.85,8093.37Zm-3.05,1.27c0.02-.47,0-0.94.01-1.41-0.29,0-.58,0-0.87-0.01-0.03,1.26,0,2.51-.01,3.76,0.29,0.01.59,0.01,0.88,0.01v-0.27a1.1,1.1,0,0,0,1.53.07,1.5,1.5,0,0,0,.06-2.14A1.163,1.163,0,0,0,2560.8,8094.64Zm0.29,1.58a0.594,0.594,0,0,1,.03-1.06A0.574,0.574,0,1,1,2561.09,8096.22Zm4.86-1.82a1.345,1.345,0,0,0-.88,1.81,1.609,1.609,0,0,0,2.4.55,1.38,1.38,0,0,0,.11-2.03A1.692,1.692,0,0,0,2565.95,8094.4Zm0.25,1.81a0.59,0.59,0,0,1,.09-1.06A0.573,0.573,0,1,1,2566.2,8096.21Zm4.22-1.56a1.085,1.085,0,0,0-1.43-.12,1.49,1.49,0,0,0-.18,2.2,1.221,1.221,0,0,0,1.62-.01,1,1,0,0,1-.2.67,0.9,0.9,0,0,1-.6.15v0.81a1.71,1.71,0,0,0,1.13-.25,1.508,1.508,0,0,0,.54-1.2v-2.49h-0.88v0.24Zm-0.81,1.54a0.6,0.6,0,0,1,.06-1.05A0.576,0.576,0,1,1,2569.61,8096.19Z" transform="translate(-2557 -8089)"/>
</svg>
