<svg id="_-e-reason_icon_5" data-name="-e-reason_icon_5" xmlns="http://www.w3.org/2000/svg" width="25" height="30" viewBox="0 0 25 30">
  <defs>
    <style>
      .cls-1 {
        fill: #abacaf;
        fill-rule: evenodd;
      }
    </style>
  </defs>
  <path class="cls-1" d="M1346.7,7639H1328v30h25v-23.65Zm0.35,2.05,3.92,3.95h-3.92v-3.95Zm-17.86,26.75v-27.6h16.67v6h5.95v21.6h-22.62Zm12.19-7.71a3.6,3.6,0,0,1-1.15.51,0.432,0.432,0,0,1-.28-0.08,0.81,0.81,0,0,1-.03-0.57c0.21-1.09.79-4,1.22-6.14l0.32-1.62a1.485,1.485,0,0,0-1.46-1.79h-0.69a0.6,0.6,0,1,0,0,1.2H1340a0.319,0.319,0,0,1,.24.11,0.329,0.329,0,0,1,.06.25l-0.32,1.61c-0.43,2.15-1.02,5.06-1.23,6.15a1.842,1.842,0,0,0,.28,1.57,1.5,1.5,0,0,0,1.2.51,4.351,4.351,0,0,0,1.78-.69,0.618,0.618,0,0,0,.19-0.83A0.6,0.6,0,0,0,1341.38,7660.09Zm-0.28-13.89a1.2,1.2,0,1,0,1.19,1.2A1.195,1.195,0,0,0,1341.1,7646.2Z" transform="translate(-1328 -7639)"/>
</svg>
