<svg id="_-e-reason_icon_3" data-name="-e-reason_icon_3" xmlns="http://www.w3.org/2000/svg" width="30" height="29" viewBox="0 0 30 29">
  <defs>
    <style>
      .cls-1 {
        fill: #abacaf;
        fill-rule: evenodd;
      }
    </style>
  </defs>
  <path class="cls-1" d="M1350.57,7461.85l-5.53,3.31h-5.64a0.61,0.61,0,0,1,0-1.22h4.43a2.166,2.166,0,0,0,2.16-1.89,2.132,2.132,0,0,0-.54-1.64,2.05,2.05,0,0,0-1.55-.7h-6.77a6.722,6.722,0,0,0-3.18.91l-3.84,2.31-0.32-.8-4.79,1.8,3.61,9.07,4.79-1.8-0.73-1.83h12.93a2.31,2.31,0,0,0,1.11-.34l6.03-3.86a2.349,2.349,0,0,0,1.01-1.35,1.846,1.846,0,0,0-.28-1.46A2.19,2.19,0,0,0,1350.57,7461.85Zm-21.28,9.61-2.72-6.84,2.54-.95,2.72,6.83Zm22.82-7.32-6.05,3.87a1.1,1.1,0,0,1-.5.16h-13.37l-1.63-4.11,3.99-2.39a5.5,5.5,0,0,1,2.58-.75h6.77a0.854,0.854,0,0,1,.66.3,0.88,0.88,0,0,1,.23.71,0.939,0.939,0,0,1-.96.8h-4.43a1.82,1.82,0,0,0,0,3.64h5.8a0.586,0.586,0,0,0,.31-0.09l5.63-3.37c0.04-.02.96-0.46,1.32,0.1a0.737,0.737,0,0,1,.13.53A1.176,1.176,0,0,1,1352.11,7464.14Zm-25.13-11.25a0.589,0.589,0,0,0,.42.17h0.6a0.589,0.589,0,0,0,.42-0.17l0.78-.79,0.78,0.79a0.589,0.589,0,0,0,.42.17h1.2a0.589,0.589,0,0,0,.42-0.17l0.78-.79,0.78,0.79a0.589,0.589,0,0,0,.42.17h1.2a0.589,0.589,0,0,0,.42-0.17l1.03-1.04h1.3l1.63,1.64a0.6,0.6,0,0,0,.42.18h2.52a6.65,6.65,0,1,0,0-6.04H1327.4a0.589,0.589,0,0,0-.42.17l-1.81,1.81a0.631,0.631,0,0,0-.17.43v0.61a0.589,0.589,0,0,0,.17.42Zm-0.78-2.6,1.45-1.46h15.25a0.591,0.591,0,0,0,.55-0.36,5.435,5.435,0,1,1,0,4.35,0.591,0.591,0,0,0-.55-0.36h-2.65l-1.63-1.64a0.589,0.589,0,0,0-.42-0.17h-1.8a0.589,0.589,0,0,0-.42.17l-1.03,1.03h-0.7l-1.03-1.03a0.6,0.6,0,0,0-.84,0l-1.03,1.03h-0.7l-1.03-1.03a0.6,0.6,0,0,0-.84,0l-1.03,1.03h-0.1l-1.45-1.45v-0.11Zm24,2.77a2.415,2.415,0,1,0-2.4-2.41A2.409,2.409,0,0,0,1350.2,7453.06Zm0-3.62a1.205,1.205,0,1,1-1.2,1.21A1.206,1.206,0,0,1,1350.2,7449.44Z" transform="translate(-1325 -7444)"/>
</svg>
