<svg id="_-e-reason_icon_2" data-name="-e-reason_icon_2" xmlns="http://www.w3.org/2000/svg" width="30" height="30" viewBox="0 0 30 30">
  <defs>
    <style>
      .cls-1 {
        fill: #abacaf;
        fill-rule: evenodd;
      }
    </style>
  </defs>
  <path class="cls-1" d="M2562.22,7266.58c-0.18-.06-0.37-0.12-0.56-0.18-1.35-.45-1.56-0.64-1.56-1.05a1.825,1.825,0,0,1,.49-1.06,4.611,4.611,0,0,0,1.01-2.9,3.6,3.6,0,1,0-7.2,0,4.553,4.553,0,0,0,1.01,2.9,1.825,1.825,0,0,1,.49,1.06c0,0.41-.2.6-1.56,1.05-0.19.06-.38,0.12-0.56,0.18-1.84.57-3.58,1.11-3.58,5.42a0.6,0.6,0,0,0,.6.6h14.4a0.6,0.6,0,0,0,.6-0.6C2565.8,7267.69,2564.06,7267.15,2562.22,7266.58Zm-10.81,4.82c0.12-2.86,1.12-3.18,2.72-3.67,0.19-.06.39-0.12,0.59-0.19,1.17-.39,2.38-0.79,2.38-2.19a2.9,2.9,0,0,0-.71-1.76,3.31,3.31,0,0,1-.79-2.2,2.407,2.407,0,1,1,4.8,0,3.31,3.31,0,0,1-.79,2.2,2.9,2.9,0,0,0-.71,1.76c0,1.4,1.21,1.8,2.38,2.19,0.2,0.07.4,0.13,0.58,0.19,1.6,0.49,2.61.81,2.73,3.67h-13.18Zm20.99-6h-1.22a13.2,13.2,0,0,0-12.58-12.58v-1.22a0.6,0.6,0,1,0-1.2,0v1.22a13.218,13.218,0,0,0-12.59,12.58h-1.21a0.6,0.6,0,1,0,0,1.2h1.21a13.218,13.218,0,0,0,12.59,12.58v1.22a0.6,0.6,0,0,0,1.2,0v-1.22a13.2,13.2,0,0,0,12.58-12.58h1.22A0.6,0.6,0,0,0,2572.4,7265.4Zm-13.8,12.57v-1.17a0.6,0.6,0,1,0-1.2,0v1.17a12,12,0,0,1-11.37-11.37h1.17a0.6,0.6,0,1,0,0-1.2h-1.17a12,12,0,0,1,11.37-11.37v1.17a0.6,0.6,0,0,0,1.2,0v-1.17a11.991,11.991,0,0,1,11.37,11.37h-1.17a0.6,0.6,0,1,0,0,1.2h1.17A11.991,11.991,0,0,1,2558.6,7277.97Z" transform="translate(-2543 -7251)"/>
</svg>
